<svg width="408" height="359" viewBox="0 0 408 359" fill="none" xmlns="http://www.w3.org/2000/svg">
<circle cx="258" cy="209" r="150" fill="#A65DE9"/>
<circle cx="258" cy="209" r="135" fill="#D7B7F5"/>
<path d="M167.825 194.866C158.748 203.513 167.825 194.866 156.054 206.215C156.054 209.998 152.413 209.998 167.825 220.806C192.124 237.848 228.383 265.446 240.154 277.227C244.192 281.269 253.321 284.754 260.577 282.74C280.432 277.227 269.37 251.791 269.937 236.695C294.236 237.163 344.138 237.819 349.357 236.695C355.881 235.29 359.499 180.918 349.357 178.761C337.161 176.167 296.694 175.158 269.937 176.167C268.991 170.402 269.937 149.47 269.937 149.47C269.937 149.47 269.937 138.661 260.577 134.337C254.027 131.312 245.449 135.779 240.722 138.661C220.205 153.793 176.902 186.219 167.825 194.866Z" fill="#A65DE9" stroke="#A65DE9"/>
</svg>
